<?xml version="1.0" encoding="UTF-8" standalone="no"?>
<!-- Created with Inkscape (http://www.inkscape.org/) -->

<svg
   xmlns:dc="http://purl.org/dc/elements/1.1/"
   xmlns:cc="http://creativecommons.org/ns#"
   xmlns:rdf="http://www.w3.org/1999/02/22-rdf-syntax-ns#"
   xmlns:svg="http://www.w3.org/2000/svg"
   xmlns="http://www.w3.org/2000/svg"
   xmlns:sodipodi="http://sodipodi.sourceforge.net/DTD/sodipodi-0.dtd"
   xmlns:inkscape="http://www.inkscape.org/namespaces/inkscape"
   width="608.88599"
   height="94.098747"
   id="svg3907"
   version="1.1"
   inkscape:version="0.48.5 r10040"
   sodipodi:docname="MadMakerLogo-HelveticaNueue-Final.svg">
  <defs
     id="defs3909" />
  <sodipodi:namedview
     id="base"
     pagecolor="#ffffff"
     bordercolor="#666666"
     borderopacity="1.0"
     inkscape:pageopacity="0.0"
     inkscape:pageshadow="2"
     inkscape:zoom="0.49497475"
     inkscape:cx="324.3013"
     inkscape:cy="-100.60944"
     inkscape:document-units="px"
     inkscape:current-layer="layer1"
     showgrid="false"
     inkscape:window-width="649"
     inkscape:window-height="605"
     inkscape:window-x="50"
     inkscape:window-y="50"
     inkscape:window-maximized="0"
     fit-margin-top="0"
     fit-margin-left="0"
     fit-margin-right="0"
     fit-margin-bottom="0" />
  <metadata
     id="metadata3912">
    <rdf:RDF>
      <cc:Work
         rdf:about="">
        <dc:format>image/svg+xml</dc:format>
        <dc:type
           rdf:resource="http://purl.org/dc/dcmitype/StillImage" />
        <dc:title></dc:title>
      </cc:Work>
    </rdf:RDF>
  </metadata>
  <g
     inkscape:label="Layer 1"
     inkscape:groupmode="layer"
     id="layer1"
     transform="translate(-70.557013,-485.31281)">
    <path
       id="path2994-9"
       style="fill:#000000;stroke:none"
       d="m 450.14151,513.3116 c -22.94643,0.35714 -24.46875,17.5 -24.46875,17.5 l 0.0937,2.78125 9.34375,0 c 0,0 -1.03939,-12.21875 14.90625,-12.21875 15.42344,0 16.0625,10.64906 16.0625,13.82392 0,3.17486 0,12.21179 0,12.21179 0,0 -5.22107,-6.77371 -20.03379,-6.57045 -20.53201,0.28173 -23.37665,11.72973 -23.37627,20.25349 3.8e-4,8.52377 4.40437,18.31758 23.38262,18.31758 17.12376,0 20.80869,-8.44258 20.80869,-8.44258 l 0,7.9375 8.4375,0 c 0,0 -0.25,-42.57485 -0.25,-45.83618 0,-3.26133 -1.95982,-20.11471 -24.90625,-19.75757 z m -1.71875,35.34375 c 14.26208,-0.20009 17.18942,6.23724 17.0625,11.78125 -0.17857,7.80042 -8.91518,10.98214 -17.21875,10.625 -8.30357,-0.35715 -16.4375,-2.05117 -16.4375,-11.34375 0,-4.82143 2.33168,-10.86241 16.59375,-11.0625 z m -124.50454,-57.54848 10.89286,0 27.1875,52.14285 27.8125,-52.14285 10.49107,0 0,88.30356 -10.49107,0 0,-66.78571 -27.54464,50.53572 -27.45536,-50.71429 0,66.96428 -10.89286,0 z m 270.03165,22.89731 c -23.61534,0 -25.53125,17.86712 -25.53125,20.1875 0,2.32038 -0.125,18.7377 -0.125,22.875 0,4.13729 1.27109,22.34375 27.15625,22.34375 15.34169,0 24.65625,-7.29689 24.65625,-19.33281 l 0,-1.38594 -8.625,0 -0.125,2.78125 c 0,0 -1.49254,9.71875 -17.78125,9.71875 -16.28871,0 -16.6875,-13.875 -16.6875,-13.875 l 0,-8.71875 43.3125,0 c 0,0 0.125,-8.03317 0.125,-10.34375 0,-2.31057 1.79071,-24.25 -26.375,-24.25 z m -0.6875,7.8125 c 0.62739,-0.0209 1.26206,-0.0189 1.9375,0 18.82557,0.52763 16.28125,17.046 16.28125,19.84375 l -34.46875,0 c 0,0 -3.19903,-19.19618 16.25,-19.84375 z m 51.80358,-6.4241 7.90178,0.0893 0,7.76785 c 0,0 9.33036,-8.39285 18.08036,-8.75 8.75,-0.35714 8.39286,-0.0893 8.39286,-0.0893 l -0.26786,8.92857 c 0,0 -3.28969,-0.41856 -7.41072,-0.44643 -3.34196,-0.0226 -17.05356,1.69643 -17.05356,14.19643 0,12.5 0,42.32143 0,42.32143 l -9.64286,0 z m -144.69114,-28.94775 9.20186,0 0,61.93498 29.49961,-32.95623 11.99556,0 -24.18053,27.71606 27.46353,36.27079 -12.87945,0 -20.83439,-28.75778 -11.06433,11.01698 0,17.7408 -9.20186,0 z m -211.95619,-1.13202 0,35.71875 c 0,0 -3.31628,-7.84883 -19.15625,-7.84883 -18.99315,0 -23.5,14.77598 -23.5,20.31758 0,2.60888 -0.0625,12 -0.0625,12 0,0 0.3125,11.57253 0.3125,14.3125 1.00342,11.70882 10.09819,19.32455 22.44464,19.59375 17.40897,0.2418 21.02411,-8.375 21.02411,-8.375 l 0,7.50827 9.78125,0 0,-93.22702 z m -16.63839,36.79464 c 10.70299,0 17.29464,6.70573 17.29464,14.45536 0,8.11219 -0.0714,16.45618 -0.25,20.9375 -0.17857,4.48132 -4.81568,13.89365 -16.03125,13.3125 -10.4065,0.43758 -17.27174,-5.59691 -17.50446,-14.25 0,-2.06706 -0.21875,-10.8125 -0.21875,-10.8125 0,0 0.0625,-7.06307 0.0625,-9.03125 0,-4.18066 2.28594,-14.61161 16.64732,-14.61161 z m -75.45536,-8.79585 c -22.94643,0.35714 -24.46875,17.5 -24.46875,17.5 l 0.0937,2.78125 9.34375,0 c 0,0 -1.03939,-12.21875 14.90625,-12.21875 15.42344,0 16.0625,10.64906 16.0625,13.82392 0,3.17486 0,12.21179 0,12.21179 0,0 -5.22107,-6.77371 -20.03379,-6.57045 -20.53201,0.28173 -23.37665,11.72973 -23.37627,20.25349 3.8e-4,8.52377 4.40437,18.31758 23.38262,18.31758 17.12376,0 20.80869,-8.44258 20.80869,-8.44258 l 0,7.9375 8.4375,0 c 0,0 -0.25,-42.57485 -0.25,-45.83618 0,-3.26133 -1.95982,-20.11471 -24.90625,-19.75757 z m -1.71875,35.34375 c 14.26208,-0.20009 17.18942,6.23724 17.0625,11.78125 -0.17857,7.80042 -8.91518,10.98214 -17.21875,10.625 -8.30357,-0.35715 -16.4375,-2.05117 -16.4375,-11.34375 0,-4.82143 2.33168,-10.86241 16.59375,-11.0625 z m -124.049107,-57.54848 10.892858,0 27.187499,52.14285 27.8125,-52.14285 10.49107,0 0,88.30356 -10.49107,0 0,-66.78571 -27.54464,50.53572 -27.455359,-50.71429 0,66.96428 -10.892858,0 z"
       inkscape:connector-curvature="0" />
  </g>
</svg>
